<?xml version="1.0" encoding="utf-8"?>
<!-- Generator: Adobe Illustrator 18.1.1, SVG Export Plug-In . SVG Version: 6.00 Build 0)  -->
<svg version="1.1" id="Layer_1" xmlns="http://www.w3.org/2000/svg" xmlns:xlink="http://www.w3.org/1999/xlink" x="0px" y="0px"
	 viewBox="20 -320 1000 1200" enable-background="new 20 -320 1000 1200" xml:space="preserve">
<path stroke="#FFFFFF" stroke-miterlimit="10" d="M520-147.8c160.9,278.7,321.3,556.5,482.1,835c-321.7,0-642.6,0-964.2,0
	C198.6,408.8,359.1,131,520-147.8z"/>
<path fill="#FDFDFD" stroke="#FFFFFF" stroke-miterlimit="10" d="M678.1,251.3c73.1,126.5,146.1,252.9,219.5,380
	c-251.9,0-503.1,0-755.1,0c73.4-127,146.7-254,219.9-380.9c0.3,0.1,0.7,0.2,1,0.3c-0.4,9.1-0.8,18.2-1.3,27.3
	c-0.9,17.8-2,35.5-2.8,53.3c-0.2,3.7-1.8,8.4,4.7,8.9c8.5,0.6,9.9-0.4,11-8.1c0.9-6.4,2.2-12.6,4.3-18.7c8-22.8,24.5-35.7,48.6-36.6
	c18.7-0.7,37.4-0.3,56.2-0.6c4.8-0.1,5.6,2.5,5.6,6.4c-0.1,21.2,0,42.4,0,63.6c0,71.7-0.1,143.4,0,215.1c0,7-0.4,14-1.2,20.9
	c-1.9,17.2-10.8,26.1-28,27.9c-6,0.6-12.1,0.9-18.1,0.8c-5.5-0.2-6.4,2.9-6.2,7.1c0.2,3.9-0.5,8,5.9,8c50.9-0.2,101.8-0.2,152.6,0
	c6.2,0,6.4-3.3,6.5-7.9c0.1-4.8-0.9-7.4-6.5-7.1c-7.9,0.4-15.9,0-23.7-1.8c-13.2-3.2-19.5-10.5-21.3-23.8
	c-1.4-10.3-1.7-20.7-1.7-31.1c0-90.4,0.1-180.8-0.1-271.2c0-5.1,1.1-6.9,6.5-6.7c19.5,0.6,39-1.3,58.4,1.1
	c28.7,3.5,44.3,18.3,50.3,46.5c0.6,2.6,1,5.2,1.4,7.8c1.5,8.3,5.4,10.7,13.4,8.5c3.5-1,2.7-3.8,2.6-6c-0.9-21.5-1.9-43.1-3-64.6
	c-0.3-5.8-0.6-11.7-0.9-17.5C677.1,251.6,677.6,251.5,678.1,251.3z"/>
<path fill="#FDFDFD" stroke="#FFFFFF" stroke-miterlimit="10" d="M520-22.7c52.3,90.6,103.9,180.1,155.9,270.2
	c-104.1,0-207.4,0-311.8,0C416.1,157.4,467.7,67.8,520-22.7z"/>
</svg>
