<?xml version="1.0" encoding="utf-8"?>
<!-- Generator: Adobe Illustrator 16.0.0, SVG Export Plug-In . SVG Version: 6.00 Build 0)  -->
<!DOCTYPE svg PUBLIC "-//W3C//DTD SVG 1.1//EN" "http://www.w3.org/Graphics/SVG/1.1/DTD/svg11.dtd">
<svg version="1.1" id="Layer_1" xmlns="http://www.w3.org/2000/svg" xmlns:xlink="http://www.w3.org/1999/xlink" x="0px" y="0px"
	 width="1000px" height="1200px" viewBox="0 0 1000 1200" enable-background="new 0 0 1000 1200" xml:space="preserve">
<g>
	<g>
		<path fill="#FEFEFE" d="M21.535,1076.815c0-322.561,0-645.121,0-967.682c315.392,0,630.786,0.205,946.175-0.52
			c18.415-0.042,22.071,3.612,22.029,22.023c-0.732,308.223-0.732,616.451,0,924.674c0.042,18.412-3.614,22.065-22.026,22.023
			C652.321,1076.61,336.927,1076.815,21.535,1076.815z"/>
		<path fill-rule="evenodd" clip-rule="evenodd" d="M99.288,885.889c138.86-240.598,276.358-478.838,415.727-720.317
			c139,240.76,276.705,479.278,415.867,720.317C653.108,885.889,378.375,885.889,99.288,885.889z"/>
		<path fill-rule="evenodd" clip-rule="evenodd" fill="#FEFEFE" d="M655.729,512.943c34.778,69.888,77.083,135.523,115.075,203.596
			c22.023,39.464,44.564,78.635,66.872,117.941c-13.582,6.342-27.985,2.93-41.893,2.777c-70.091-0.756-140.223,2.866-210.245-1.78
			c-3.979-1.995-7.048-6.53-11.282-6.998c-38.123-4.168-44.073-31.321-44.336-62.028c-0.58-68.083-0.69-136.175,0.05-204.252
			c0.323-29.867,6.533-35.212,37.207-36.162c31.261-0.971,62.459-1.486,75.327,35.737
			C648.387,545.877,632.114,524.158,655.729,512.943z"/>
		<path fill-rule="evenodd" clip-rule="evenodd" fill="#FEFEFE" d="M193.478,834.89c20.583-45.076,47.983-86.362,72.277-129.365
			c36.436-64.491,73.823-128.447,110.81-192.628c13.839,1.533,9.844,12.279,10.101,20.344c0.275,8.646-3.179,17.215-0.074,30.896
			c13.55-36.372,40.793-39.637,70.792-38.335c33.626,1.454,39.17,5.964,39.664,39.002c0.602,40.105,0.152,80.22,0.173,120.335
			c0.017,27.631,0.216,55.267-0.062,82.897c-0.438,43.224-5.474,49.66-46.996,61.546c-7.135,6.169-15.369,8.054-24.72,8.027
			c-73.944-0.21-147.89-0.084-221.836-0.11C199.959,837.499,196.552,836.927,193.478,834.89z"/>
		<path fill-rule="evenodd" clip-rule="evenodd" fill="#FEFEFE" d="M381.723,501.583c44.053-74.849,88.103-149.699,133.828-227.388
			c44.869,78.109,89.059,155.033,133.245,231.95c-7.093,8.657-17.215,9.025-26.996,9.114c-70.683,0.641-141.375,0.777-212.053-0.168
			C399.213,514.954,385.313,517.853,381.723,501.583z"/>
		<path fill-rule="evenodd" clip-rule="evenodd" fill="#010101" d="M381.723,501.583c1.021,6.174,5.87,5.513,10.143,5.497
			c85.643-0.283,171.287-0.614,256.93-0.935c2.312,2.268,4.623,4.536,6.933,6.799c-12.075,19.105-1.3,39.023-2.032,58.527
			c-0.223,5.891,3.15,13.45-5.662,15.493c-11.043,2.557-7.384-6.867-8.735-12.001c-9.27-35.207-63.544-59.016-95.131-42.026
			c-7.648,4.116-5.297,10.605-5.308,16.317c-0.162,76.855-0.188,153.715-0.016,230.57c0.056,24.14,6.768,42.662,36.646,39.701
			c6.353-0.631,10.146,2.441,9.979,9.287c-8.725,8.662-19.89,5.822-30.185,5.933c-30.015,0.325-60.047,0.588-90.051-0.168
			c-8.982-0.226-23.045,2.939-17.95-15.126c36.249-1.297,41.74-6.468,41.872-42.551c0.272-74.22-0.693-148.455,0.604-222.653
			c0.347-19.824-6.311-24.633-24.131-22.407c-15.889,1.984-32.92-0.578-47.739,4.184c-15.836,5.087-23.78,20.239-26.602,37.296
			c-0.903,5.471-0.515,14.49-9.316,13.587c-9.532-0.977-4.633-9.702-5.447-15.078c-2.977-19.619,9.015-39.265,0.04-58.931
			C374.165,507.247,371.519,501.483,381.723,501.583z"/>
		<path fill-rule="evenodd" clip-rule="evenodd" fill="#B7B7B7" d="M447.285,819.449c-2.575,7.503-0.543,12.532,7.983,12.275
			c43.396-1.287,86.942,4.084,130.202-2.914c6.542,9.114,16.272,5.623,24.686,5.644c75.84,0.221,151.679,0.068,227.521,0.026
			c-3.098,10.747-11.965,5.407-17.79,5.413c-204.1,0.341-408.201,0.294-612.301,0.21c-5.218-0.006-10.439-1.098-15.645-1.78
			c-0.21-0.026-0.583-1.233-0.37-1.569c0.462-0.73,1.252-1.255,1.908-1.864c73.138-0.095,146.287-0.793,219.411,0.21
			C428.206,835.31,439.058,831.845,447.285,819.449z"/>
	</g>
</g>
</svg>
